<svg width="241" height="271" viewBox="0 0 241 271" fill="none" xmlns="http://www.w3.org/2000/svg">
<g clip-path="url(#clip0_292_12)">
<path d="M240.2 180.15V194.86C240.2 236.49 206.46 270.22 164.84 270.22H60.05V210.17H164.89C173.32 210.17 180.15 203.34 180.15 194.91V180.15H240.2Z" fill="#8F75D4"/>
<path d="M180.15 120.1V180.15H75.36C33.74 180.15 0 146.41 0 104.79V60.05H60.05V104.84C60.05 113.27 66.88 120.1 75.31 120.1H180.15Z" fill="#8F75D4"/>
<path d="M240.2 75.36V120.1H180.15V75.31C180.15 66.88 173.32 60.05 164.89 60.05H60.05V0H164.84C206.46 0 240.2 33.74 240.2 75.36Z" fill="#8F75D4"/>
</g>
<defs>
<clipPath id="clip0_292_12">
<rect width="240.2" height="270.22" fill="white"/>
</clipPath>
</defs>
</svg>
