<?xml version="1.0" encoding="UTF-8"?>
<svg id="Layer_2" data-name="Layer 2" xmlns="http://www.w3.org/2000/svg" viewBox="0 0 240.2 270.22">
  <defs>
    <style>
      .cls-1 {
        fill: #a084e8;
      }
    </style>
  </defs>
  <g id="new">
    <g>
      <path class="cls-1" d="M240.2,180.15v14.71c0,41.63-33.74,75.36-75.36,75.36H60.05v-60.05h104.84c8.43,0,15.26-6.83,15.26-15.26v-14.76h60.05Z"/>
      <path class="cls-1" d="M180.15,120.1v60.05H75.36C33.74,180.15,0,146.41,0,104.79V60.05H60.05v44.79c0,8.43,6.83,15.26,15.26,15.26h104.84Z"/>
      <path class="cls-1" d="M240.2,75.36v44.74h-60.05v-44.79c0-8.43-6.83-15.26-15.26-15.26H60.05V0h104.79c41.62,0,75.36,33.74,75.36,75.36Z"/>
    </g>
  </g>
</svg>